<svg width="617" height="402" viewBox="0 0 617 402" fill="none" xmlns="http://www.w3.org/2000/svg">
<path fill-rule="evenodd" clip-rule="evenodd" d="M941.615 339.078L935.126 316.695C928.636 294.313 915.657 249.548 886.539 232.737C857.421 215.925 812.164 227.067 772.959 227.727C733.754 228.387 700.601 218.563 673.5 198.258C646.399 177.952 625.351 147.164 604.302 116.376C583.253 85.5882 562.205 54.8002 527.034 48.4713C491.864 42.1425 442.572 60.2729 399.333 67.9208C356.093 75.5686 318.906 72.734 295.84 45.4401C272.774 18.1462 263.829 -33.6069 259.357 -59.4834L254.885 -85.36L315.405 -190.185L329.964 -181.78C344.524 -173.374 373.642 -156.563 402.76 -139.751C431.878 -122.94 460.996 -106.128 490.114 -89.3171C519.232 -72.5058 548.35 -55.6944 577.469 -38.883C606.587 -22.0717 635.705 -5.26031 664.823 11.5511C693.941 28.3624 723.059 45.1738 752.177 61.9851C781.295 78.7965 810.414 95.6078 839.532 112.419C868.65 129.231 897.768 146.042 926.886 162.853C956.004 179.665 985.122 196.476 999.681 204.882L1014.24 213.287L941.615 339.078Z" fill="#009647"/>
<path fill-rule="evenodd" clip-rule="evenodd" d="M725.45 204.143L720.31 180.125C715.17 156.106 704.891 108.069 676.381 91.6088C647.871 75.1484 601.13 90.2647 561.225 93.5398C521.321 96.8148 488.253 88.2487 462.022 67.8412C435.79 47.4338 416.396 15.1852 397.001 -17.0635C377.606 -49.3121 358.211 -81.5608 322.865 -86.1799C287.518 -90.799 236.219 -67.7886 191.757 -56.6194C147.295 -45.4501 109.67 -46.1221 87.9962 -74.4237C66.3226 -102.725 60.6009 -158.656 57.7401 -186.622L54.8793 -214.588L123.245 -333L137.5 -324.77C151.755 -316.54 180.265 -300.079 208.775 -283.619C237.285 -267.159 265.795 -250.698 294.306 -234.238C322.816 -217.778 351.326 -201.317 379.836 -184.857C408.346 -168.397 436.856 -151.936 465.366 -135.476C493.877 -119.016 522.387 -102.555 550.897 -86.0949C579.407 -69.6345 607.917 -53.1742 636.427 -36.7138C664.937 -20.2535 693.448 -3.79316 721.958 12.6672C750.468 29.1275 778.978 45.5879 793.233 53.818L807.488 62.0482L725.45 204.143Z" fill="#F8BF02"/>
<path fill-rule="evenodd" clip-rule="evenodd" d="M715.483 291.881L710.059 273.171C704.634 254.462 693.784 217.042 669.444 202.99C645.104 188.937 607.274 198.251 574.502 198.802C541.73 199.353 514.018 191.142 491.364 174.169C468.71 157.195 451.115 131.459 433.521 105.723C415.926 79.9873 398.331 54.2514 368.932 48.961C339.533 43.6707 298.33 58.826 262.186 65.2189C226.041 71.6118 194.956 69.2423 175.675 46.4272C156.394 23.6121 148.917 -19.6487 145.179 -41.2791L141.44 -62.9095L192.03 -150.534L204.2 -143.507C216.37 -136.481 240.71 -122.428 265.05 -108.375C289.39 -94.3227 313.73 -80.27 338.07 -66.2173C362.41 -52.1645 386.75 -38.1118 411.09 -24.0591C435.43 -10.0063 459.771 4.04639 484.111 18.0991C508.451 32.1518 532.791 46.2046 557.131 60.2573C581.471 74.31 605.811 88.3628 630.151 102.415C654.491 116.468 678.831 130.521 703.171 144.574C727.511 158.626 751.851 172.679 764.021 179.706L776.191 186.732L715.483 291.881Z" fill="url(#paint0_linear_92_511)"/>
<defs>
<linearGradient id="paint0_linear_92_511" x1="332.236" y1="236.66" x2="479.296" y2="-29.7125" gradientUnits="userSpaceOnUse">
<stop stop-color="#009647" stop-opacity="0.92"/>
<stop offset="1" stop-color="#D9D9D9" stop-opacity="0"/>
</linearGradient>
</defs>
</svg>
