<svg width="609" height="399" viewBox="0 0 609 399" fill="none" xmlns="http://www.w3.org/2000/svg">
<path fill-rule="evenodd" clip-rule="evenodd" d="M-301.748 60.8666L-295.47 82.5177C-289.193 104.169 -276.637 147.471 -248.471 163.733C-220.304 179.995 -176.525 169.217 -138.601 168.579C-100.677 167.941 -68.6075 177.443 -42.3921 197.086C-16.1768 216.728 4.18421 246.51 24.5452 276.292C44.9062 306.074 65.2672 335.856 99.2884 341.979C133.31 348.101 180.991 330.563 222.818 323.165C264.645 315.767 300.617 318.509 322.93 344.911C345.242 371.313 353.895 421.375 358.221 446.406L362.547 471.438L304.003 572.838L289.92 564.707C275.836 556.576 247.67 540.314 219.503 524.052C191.336 507.79 163.169 491.527 135.002 475.265C106.836 459.003 78.6688 442.741 50.502 426.479C22.3352 410.217 -5.83161 393.955 -33.9984 377.693C-62.1652 361.43 -90.332 345.168 -118.499 328.906C-146.666 312.644 -174.832 296.382 -202.999 280.12C-231.166 263.858 -259.333 247.596 -287.5 231.334C-315.667 215.071 -343.833 198.809 -357.917 190.678L-372 182.547L-301.748 60.8666Z" fill="#009647"/>
<path fill-rule="evenodd" clip-rule="evenodd" d="M-92.6445 191.393L-87.6727 214.626C-82.701 237.86 -72.7575 284.328 -45.1788 300.25C-17.6001 316.173 27.6138 301.55 66.2144 298.382C104.815 295.214 136.803 303.501 162.177 323.241C187.551 342.982 206.312 374.177 225.073 405.372C243.834 436.567 262.596 467.762 296.787 472.23C330.979 476.699 380.602 454.44 423.611 443.636C466.621 432.831 503.017 433.481 523.983 460.858C544.948 488.235 550.483 542.339 553.25 569.391L556.018 596.443L489.886 710.987L476.096 703.025C462.307 695.064 434.728 679.142 407.15 663.219C379.571 647.296 351.992 631.374 324.414 615.451C296.835 599.529 269.256 583.606 241.678 567.684C214.099 551.761 186.52 535.838 158.941 519.916C131.363 503.993 103.784 488.071 76.2054 472.148C48.6267 456.226 21.0481 440.303 -6.53063 424.381C-34.1093 408.458 -61.688 392.535 -89.2667 376.613C-116.845 360.69 -144.424 344.768 -158.213 336.806L-172.003 328.845L-92.6445 191.393Z" fill="#F8BF02"/>
<path fill-rule="evenodd" clip-rule="evenodd" d="M-83.0033 106.521L-77.7558 124.62C-72.5084 142.718 -62.0134 178.915 -38.4686 192.508C-14.9237 206.102 21.6709 197.092 53.3719 196.559C85.0729 196.026 111.88 203.969 133.794 220.388C155.707 236.807 172.727 261.702 189.747 286.597C206.767 311.492 223.787 336.387 252.225 341.505C280.664 346.622 320.521 331.962 355.485 325.778C390.448 319.594 420.518 321.886 439.169 343.956C457.82 366.026 465.053 407.873 468.669 428.797L472.285 449.72L423.348 534.482L411.576 527.685C399.803 520.888 376.258 507.295 352.714 493.701C329.169 480.107 305.624 466.514 282.079 452.92C258.534 439.326 234.989 425.733 211.445 412.139C187.9 398.546 164.355 384.952 140.81 371.358C117.265 357.765 93.7205 344.171 70.1757 330.578C46.6309 316.984 23.0861 303.39 -0.458766 289.797C-24.0036 276.203 -47.5484 262.609 -71.0932 249.016C-94.6381 235.422 -118.183 221.829 -129.955 215.032L-141.728 208.235L-83.0033 106.521Z" fill="url(#paint0_linear_92_522)"/>
<defs>
<linearGradient id="paint0_linear_92_522" x1="287.723" y1="159.938" x2="145.467" y2="417.608" gradientUnits="userSpaceOnUse">
<stop stop-color="#009647" stop-opacity="0.92"/>
<stop offset="1" stop-color="#D9D9D9" stop-opacity="0"/>
</linearGradient>
</defs>
</svg>
